<svg width="24" height="24" viewBox="0 0 24 24" fill="none" xmlns="http://www.w3.org/2000/svg">
<path d="M6.47515 9.40437C7.58171 9.3584 8.4064 9.77584 9.1246 10.6187C9.30998 10.8362 9.47662 11.0595 9.70642 11.2324C10.1797 11.1125 10.763 10.8977 11.2431 10.7527C12.0971 10.493 12.9836 10.3556 13.8761 10.3446C15.9542 10.3179 17.8359 10.9357 19.3522 12.3991C20.4582 13.4626 21.1098 14.8382 21.2272 16.3683C21.3628 18.1347 21.0378 19.8696 19.7436 21.1671C18.8352 22.0777 17.722 22.5064 16.4496 22.4999C14.3461 22.4892 12.5632 21.0574 12.0142 19.0432C11.8078 18.3113 11.7771 17.8927 11.775 17.1383C11.7781 16.1307 11.9627 15.3812 12.1526 14.4146C12.1825 14.2625 11.868 14.0563 11.741 14.079C11.3186 14.1548 11.2977 14.8357 11.202 15.1711C11.0099 15.9729 10.9874 16.8071 11.0079 17.6274C11.0514 19.3999 11.7312 20.8588 13.0305 22.0491C11.0069 22.072 8.98306 22.0744 6.95939 22.0563C7.09293 20.4951 9.23145 21.0063 8.76463 19.9354C8.23513 18.7207 8.09557 17.5926 7.79908 16.3092C7.76212 16.1491 7.67788 16.0131 7.56419 15.8981C7.29609 15.8962 7.04177 15.8423 6.76952 15.8035C5.61033 15.6388 4.38466 15.272 3.46004 14.5289C3.14229 14.2736 3.03364 13.9747 3.00846 13.5794C2.93569 12.4367 3.33573 11.5157 4.07557 10.6611C4.62618 10.0251 5.62227 9.44427 6.47515 9.40437ZM5.12577 12.4382C5.29588 12.3806 5.42875 12.246 5.48424 12.0752C5.55257 11.8649 5.49283 11.634 5.33102 11.4833C5.16921 11.3325 4.93469 11.2892 4.72973 11.3722C4.4445 11.4877 4.30283 11.8091 4.41002 12.0976C4.51719 12.3861 4.83434 12.537 5.12577 12.4382Z" fill="black"/>
<path d="M9.40589 1.00002C9.59888 1.00697 9.87623 1.06196 9.9422 1.27846C10.2006 2.12666 9.71978 3.18751 9.41434 3.98113C9.26762 4.28841 9.08296 4.58104 8.9216 4.88032C8.2658 6.09661 7.83232 7.33478 7.39863 8.64347C7.19422 8.62989 6.99093 8.62772 6.78616 8.62386L6.17029 8.63277C6.21801 7.8985 6.2082 7.15115 6.29762 6.40971C6.46397 5.03019 7.91555 1.15844 9.40589 1.00002Z" fill="black"/>
<path d="M12.0929 2.68945C12.1148 2.68454 12.1342 2.68092 12.1566 2.67912C12.3483 2.66361 12.555 2.7191 12.7008 2.84698C12.8149 2.94717 12.8625 3.07458 12.8718 3.22408C12.9576 4.60659 9.85566 8.07999 8.87891 9.16591L8.84031 9.2121C8.69634 9.22124 8.31015 8.96378 8.15894 8.87466C8.69634 7.13912 9.36426 5.42718 10.4274 3.93391C10.8517 3.3378 11.3422 2.80801 12.0929 2.68945Z" fill="black"/>
</svg>
