<svg width="24" height="24" viewBox="0 0 24 24" fill="none" xmlns="http://www.w3.org/2000/svg">
<path d="M11.7232 10.273C11.829 10.2617 12.0701 10.2624 12.1784 10.2662C13.189 10.302 14.041 10.827 14.596 11.6617C14.8627 12.0665 15.0601 12.5169 15.3036 12.9355C15.7758 13.7468 16.3465 14.4889 17.0169 15.1465C17.2819 15.4064 17.5678 15.6681 17.8187 15.942C18.745 16.9732 19.2242 18.33 19.151 19.7144C19.1114 20.5669 18.7904 21.529 18.1347 22.0921C16.4708 23.5211 14.1594 22.1787 12.3096 22.0752C11.3883 22.0451 10.7166 22.1522 9.82641 22.3851C9.29507 22.5185 8.79327 22.6694 8.24562 22.7263C4.30295 23.1359 4.04813 18.2566 6.11205 16.024C6.76336 15.3194 7.47225 14.7179 8.04035 13.9272C8.32802 13.5304 8.59098 13.1163 8.82779 12.6872C9.07599 12.24 9.30206 11.7389 9.63348 11.3504C10.1956 10.6915 10.8662 10.3459 11.7232 10.273ZM12.1266 17.5057C12.4396 17.4044 12.6379 17.2191 12.6529 16.8764C12.7068 15.6352 12.8018 14.3949 12.8572 13.1542C12.8832 12.5728 12.4003 12.2742 11.8619 12.3134C11.0333 12.5044 11.1113 13.021 11.1499 13.6927L11.1971 14.5819L11.27 15.9584C11.2834 16.2487 11.2978 16.5375 11.3149 16.8277C11.3417 17.284 11.661 17.5641 12.1266 17.5057ZM12.0732 20.1753C12.6388 20.1262 13.0585 19.6292 13.0118 19.0633C12.9652 18.4973 12.4697 18.0756 11.9037 18.12C11.3342 18.1644 10.9094 18.6635 10.9564 19.2328C11.0033 19.8021 11.5041 20.2247 12.0732 20.1753Z" fill="black"/>
<path d="M19.1464 4.82005C19.2685 4.80966 19.3834 4.81669 19.4782 4.90585C20.8164 6.16415 21.5249 7.84572 21.4745 9.68283C21.4377 11.0268 21.3296 12.5147 20.2601 13.4818C19.9991 13.7179 19.7151 13.8143 19.3722 13.866C18.5643 13.8948 17.9502 13.7286 17.4652 13.0283C16.877 12.1791 16.9363 10.922 17.3769 10.0226C17.529 9.71192 17.758 9.45741 17.9529 9.17521C18.602 8.20832 18.8897 7.04917 18.9141 5.89435C18.9198 5.62421 18.8988 5.34739 18.9299 5.08006C18.9455 4.94688 19.0449 4.887 19.1464 4.82005Z" fill="black"/>
<path d="M4.66593 4.81876C4.86156 4.80559 5.05623 4.8417 5.08948 5.08087C5.0997 5.23153 5.10292 5.40405 5.10127 5.5544C5.08866 6.7031 5.30135 7.8417 5.8616 8.8545C6.0126 9.12744 6.21982 9.37507 6.40409 9.63151C6.78149 10.1567 6.95877 10.8127 6.96691 11.4551C6.9889 12.4071 6.61081 13.3723 5.67501 13.7448C5.38787 13.8591 5.14942 13.8708 4.84314 13.8721C4.6995 13.8708 4.55651 13.8526 4.41711 13.818C3.91336 13.6888 3.44078 13.2375 3.19128 12.7796C2.47396 11.4625 2.37356 9.4556 2.70453 8.02002C2.92666 7.0566 3.46998 6.08192 4.11213 5.35748C4.2766 5.17193 4.45221 4.94324 4.66593 4.81876Z" fill="black"/>
<path d="M9.22948 1.27242C9.25693 1.2698 9.28442 1.26783 9.31197 1.26648C9.45285 1.26027 9.5122 1.28709 9.61452 1.37896C9.72672 1.65425 9.71189 1.98204 9.7665 2.28056C9.81421 2.66446 9.94681 3.03006 10.0348 3.40066C10.2209 4.18493 10.7671 4.84431 10.9684 5.59654C11.0839 6.02506 11.1349 6.4684 11.1197 6.91195C11.0935 7.64359 10.8769 8.34713 10.3212 8.84434C9.85865 9.25815 9.47848 9.34054 8.8834 9.31454C6.79154 9.01245 6.75306 5.35407 7.34447 3.84424C7.65858 3.04236 8.41728 1.66698 9.22948 1.27242Z" fill="black"/>
<path d="M14.647 1.25C14.9663 1.29812 15.2143 1.57984 15.4276 1.80401C16.1122 2.52307 16.5884 3.40106 16.8358 4.36129C17.2108 5.81621 17.0569 8.88682 15.2611 9.29271C14.8314 9.345 14.481 9.32301 14.0892 9.1067C12.7326 8.35785 12.6913 6.54321 13.1489 5.2443C13.2643 4.92476 13.4816 4.64245 13.6229 4.33721C13.9513 3.62774 14.1887 2.85755 14.2887 2.08182C14.3295 1.76332 14.2688 1.3492 14.647 1.25Z" fill="black"/>
</svg>
