<svg width="24" height="24" viewBox="0 0 24 24" fill="none" xmlns="http://www.w3.org/2000/svg">
<path d="M10.2632 7.00919C12.3115 6.88831 13.6881 7.98202 15.3846 8.93684C16.1766 9.38262 16.9179 9.77242 17.748 10.1427C18.0754 10.2888 17.6166 11.0316 17.4675 11.212C15.8633 13.153 13.0204 15.0545 10.4906 15.3469C9.85517 15.3779 9.23621 15.4696 8.57907 15.4548C7.13404 15.4224 5.59683 15.1899 4.2355 14.688C3.88581 14.5591 3.10265 14.2297 3.00916 13.8475C3.09105 13.6555 3.44139 13.333 3.58328 13.1584C3.73733 12.9688 3.93892 12.7297 4.06494 12.5213C4.80325 11.3009 5.28927 9.938 6.25781 8.8674C7.10542 7.93048 8.08141 7.43183 9.3054 7.16473C9.66859 7.08549 9.87674 7.02732 10.2632 7.00919Z" fill="black"/>
<path d="M20.6206 8.99871C20.6307 8.99744 20.6409 8.99636 20.651 8.99553C23.3984 8.75759 23.4253 13.2059 18.3894 13.579C17.83 13.6206 17.3656 13.6479 16.8214 13.4639C16.7224 13.4304 16.5008 13.3926 16.475 13.2938C16.5319 13.1983 16.7176 13.079 16.8047 12.9953C17.6688 12.1647 18.5806 11.3993 18.6054 10.1325C19.0631 9.50553 19.8468 9.05158 20.6206 8.99871ZM20.5731 10.7651C21.0657 10.5216 21.061 10.2675 20.7694 9.84268C20.5729 9.77466 20.548 9.75942 20.3372 9.77728C19.6972 9.97002 20.0416 10.9596 20.5731 10.7651Z" fill="black"/>
<path d="M15.6225 13.9156C15.6813 13.9127 15.7472 13.9183 15.7926 13.959C15.9478 14.0984 16.053 14.3348 16.1492 14.5155C16.5856 15.3358 16.8834 16.182 16.9367 17.116C16.9441 17.2463 16.9525 17.4374 16.8547 17.5375C16.7097 17.6861 15.2842 17.6155 15.0135 17.6089C14.7598 17.6151 14.3214 17.4491 14.0864 17.3507C13.8963 16.9347 14.006 16.4302 13.9217 15.9829C13.8722 15.7205 13.7063 15.3926 13.6883 15.1656C13.6855 15.1299 13.7817 15.0814 13.8137 15.0633C14.1419 14.8774 15.4339 14.1416 15.6225 13.9156Z" fill="black"/>
<path d="M5.61719 15.8857C6.06354 15.8831 6.93473 16.0788 7.39416 16.1348C7.73764 16.1767 7.96751 16.1335 8.30995 16.2266C8.62744 16.5768 8.60285 17.0004 8.47818 17.4261C8.42489 17.487 8.35593 17.5448 8.29471 17.599C8.21574 17.6358 8.13307 17.6639 8.04807 17.683C7.60076 17.787 6.04315 17.6862 5.66906 17.4523C5.39031 17.0671 5.45285 16.5233 5.51872 16.0734C5.52998 15.9965 5.56901 15.9451 5.61719 15.8857Z" fill="black"/>
<path d="M2.75415 14.7685C2.83847 14.8012 2.90906 14.8648 2.98884 14.9108C3.1501 15.0039 3.3139 15.0921 3.47779 15.1801C3.805 15.3558 4.16116 15.4414 4.51004 15.5604C4.71863 15.6316 4.87285 15.7071 5.09323 15.7533C4.60332 15.9289 3.74239 16.0052 3.22198 16.0465C3.06072 16.074 2.67043 16.1166 2.51899 16.1204C2.24775 16.1272 1.19445 16.0426 1.01381 15.8719C0.835627 15.4364 2.43467 14.8756 2.75415 14.7685Z" fill="black"/>
</svg>
