<?xml version="1.0" encoding="utf-8" ?><svg xmlns="http://www.w3.org/2000/svg" xmlns:xlink="http://www.w3.org/1999/xlink" width="2544" height="494" viewBox="0 0 2544 494"><path fill="#005AFF" d="M91.8002 54.3327C106.013 52.8393 134.422 53.7372 149.689 53.7568L256.991 53.79L591.254 53.7276C607.143 53.8088 619.602 54.9882 631.181 67.3243C647.02 84.1979 640.878 114.132 642.176 134.83C643.06 148.932 642.415 162.34 642.342 175.823L642.208 325.117C642.112 339.808 639.906 350.637 629.169 361.597C612.91 378.195 586.634 373.923 564.519 373.908L484.506 373.84L204.525 373.581C213.022 364.028 219.553 352.934 226.694 342.227C234.887 341.738 246.083 342.037 254.5 342.01L594.591 342.019C610.159 332.567 610.998 328.528 610.997 310.711C610.996 298.848 611.119 286.423 611.17 274.52C611.559 241.049 611.686 207.575 611.552 174.101C553.019 172.955 490.919 174.037 432.157 174.053L94.4632 174.023C94.4833 194.886 95.6599 232.03 93.8896 251.193C80.6418 251.998 75.2136 253.45 63.2208 258.798L63.0497 154.129C62.9597 133.397 62.5802 112.597 63.4291 91.8889C64.1915 73.292 74.5693 60.5844 91.8002 54.3327ZM94.2738 135.693L325.471 135.717L512.327 135.701C544.136 135.712 580.186 136.55 611.577 135.547C611.075 113.89 616.446 86.1817 586.852 85.6171C563.426 85.1702 540.113 85.347 516.683 85.3987L380.257 85.5L203.744 85.5844C173.854 85.5902 144.053 85.4497 114.11 85.8732C91.8327 86.1883 94.8489 104.237 94.2992 121.084C94.1415 125.915 94.4065 130.83 94.2738 135.693Z"/><path fill="#005AFF" d="M1270.29 119.936C1287.84 106.655 1296.2 94.0678 1319.63 90.8801C1384.25 82.0863 1427.65 129.015 1434.42 190.221C1439.03 231.863 1437.4 270.044 1411.49 303.782C1397.48 322.375 1376.53 334.48 1353.42 337.317C1327 340.751 1306.54 333.205 1285.95 317.391C1279.86 312.032 1276.35 308.019 1270.99 301.863C1269.08 329.885 1269.88 358.971 1270.08 387.105C1270.2 404.121 1268.56 425.48 1269.87 442.049C1265.74 445.155 1218.54 443.739 1209.58 443.686L1210.02 96.6234C1224.55 95.623 1254.53 95.9652 1269.26 96.5767C1269.31 105.106 1269.48 111.467 1270.29 119.936ZM1330.65 284.437C1346.3 280.357 1355.2 276.537 1364.18 261.542C1387.03 223.359 1374.07 129.976 1312.96 141.146C1265.7 153.391 1262.84 204.671 1271.89 244.542C1278.89 275.364 1300.47 287.541 1330.65 284.437Z"/><path fill="#005AFF" d="M1051.97 91.0584C1119.93 81.8582 1182.43 129.612 1191.41 197.595C1200.39 265.578 1152.43 327.923 1084.42 336.686C1016.72 345.408 954.719 297.719 945.778 230.045C936.838 162.371 984.327 100.217 1051.97 91.0584ZM1081.38 285.45C1127.64 276.179 1131.16 226.55 1125.04 188.312C1119.5 153.694 1090.36 138.514 1057.7 143.28C1044.31 146.386 1030.63 151.574 1023.47 164.23C1010.61 186.929 1009.91 218.921 1015.3 243.762C1023 279.253 1048.91 288.094 1081.38 285.45Z"/><path fill="#005AFF" d="M2009.57 90.3671C2013.19 90.1959 2016.81 90.069 2020.43 89.9863C2048.81 89.3624 2084.04 92.3837 2105.53 113.018C2135.65 141.926 2129.11 194.023 2128.96 232.132C2128.67 265.329 2128.9 298.528 2129.63 331.717C2111.4 332.175 2089 332.019 2070.83 331.509C2069.63 325.756 2068.72 316.795 2067.93 310.746C2033.93 346.579 1944.71 352.258 1923.04 298.749C1916.68 281.981 1917.83 269.042 1920.47 252.008C1928.05 198.646 1987.57 195.329 2029.63 188.459C2043.97 186.117 2063.83 183.814 2066.25 166.02C2070.65 133.708 2014.84 132.012 1996.97 146.221C1987.82 153.499 1985.96 161.473 1984.32 172.555C1966.89 173.156 1943.04 172.866 1925.58 172.371C1928.79 117.221 1958.27 97.7721 2009.57 90.3671ZM1987.36 287.471C1999.7 294.296 2014.33 295.237 2027.76 291.348C2042.05 287.228 2054.12 277.603 2061.31 264.587C2068.7 251.144 2067.84 237.856 2067.34 223.133C2067.29 221.562 2067.21 219.666 2065.96 218.528C2036.6 233.975 1965.75 228.027 1982.14 280.012C1982.76 281.988 1985.79 285.956 1987.36 287.471Z"/><path fill="#005AFF" d="M1551.39 90.3057C1552.76 90.1712 1554.13 90.0808 1555.51 90.0346C1585.7 89.0438 1617.14 93.4253 1639.54 115.386C1671.73 146.954 1674.98 187.614 1676.16 229.631C1662.29 230.422 1647.31 229.573 1633.37 229.87C1594.56 230.695 1552.65 228.596 1514.14 230.348C1515.19 252.903 1523.16 273.762 1544.8 284.134C1557.39 290.078 1571.81 290.833 1584.95 286.235C1598.39 281.437 1604.22 274.551 1609.96 262.312C1622.9 261.626 1641.89 262.286 1655.3 262.324C1661.2 262.313 1667.35 262.491 1673.27 262.578C1669.87 273.898 1664.66 284.596 1657.85 294.257C1622.22 345.11 1546.43 350.395 1496.05 317.851C1471.24 301.826 1459.31 270.352 1454.46 242.373C1448.07 205.533 1452.13 163.926 1474.56 132.711C1495.52 103.411 1517.81 96.0482 1551.39 90.3057ZM1573.27 191.232C1585.44 191.252 1601.61 191.697 1613.44 190.891C1609.61 158.306 1592.28 135.252 1556.62 139.316C1541.45 143.416 1531.28 150.492 1523.6 164.242C1519.94 170.788 1512.24 183.658 1518.01 189.96C1524.65 192.408 1563.43 191.196 1573.27 191.232Z"/><path fill="#005AFF" d="M2307.96 32.4772C2327.09 32.0038 2347.34 32.334 2366.55 32.3352L2367 95.9327C2408.76 97.1096 2453.97 95.7889 2496.26 96.1556C2496.02 111.658 2495.27 124.351 2496.5 139.876C2453.68 140.841 2409.89 139.551 2366.84 140.224C2367.64 165.933 2366.56 192.66 2366.88 218.185C2366.73 245.489 2363.65 282.982 2401.19 284.27C2450.45 285.96 2439.23 221.934 2439.25 188.563L2439.69 176.602C2455.65 175.63 2480.41 175.949 2496.51 176.533C2496.06 198.957 2495.74 223.13 2495.89 245.563C2496.27 303.681 2456.85 339.063 2399.42 337.991C2354.47 337.152 2316.66 313.869 2308.5 267.231C2302.93 235.424 2306.27 202.746 2305.44 170.603C2304.71 126.444 2305.73 82.4886 2305.79 38.349C2305.8 35.4608 2305.94 34.3901 2307.96 32.4772Z"/><path fill="#005AFF" d="M820.006 90.3291C879.302 87.9949 933.762 115.159 937.663 180.058C920.739 181.001 893.233 180.381 875.899 180.06C866.439 145.71 840.3 132.119 806.577 147.299C796.619 151.782 788.064 169.102 785.675 179.727C779.808 205.813 780.537 238.928 793.705 262.873C806.749 286.969 833.323 291.78 856.178 278.887C868.804 271.764 872.592 259.933 875.845 246.659C881.549 246.227 889.14 246.31 894.998 246.219C908.337 246.157 924.435 245.723 937.509 246.544C926.563 329.498 826.518 364.135 763.049 316.574C712.441 278.648 707.532 173.795 745.823 125.744C764.875 101.836 790.81 93.7273 820.006 90.3291Z"/><path fill="#005AFF" d="M1789.1 90.4734C1852.3 87.5891 1900.72 113.18 1908.8 180.181C1888.24 180.351 1867.67 180.352 1847.11 180.182C1836.63 125.061 1760.17 130.451 1754.42 187.034C1751.61 214.781 1750.11 241.333 1766.55 266.055C1781.44 288.459 1806.54 292.181 1828.47 277.667C1840.44 269.425 1843 260.19 1845.23 246.955C1851.15 246.688 1858.23 246.818 1864.25 246.771C1878.81 246.653 1893.37 246.77 1907.93 247.123C1903.72 265.684 1899.33 281.424 1887.54 297.084C1853.75 341.937 1778.65 351.442 1734.59 317.235C1682.94 277.14 1678.33 176.826 1715.96 126.004C1733.26 102.651 1762 93.8449 1789.1 90.4734Z"/><path fill="#005AFF" d="M2264.9 90.4883C2273.29 90.277 2282.75 89.7902 2291.01 90.6537L2290.65 153.084C2275.03 151.744 2263.76 150.798 2248.56 155.959C2209.53 169.211 2217.65 210.845 2217.58 243.381C2217.36 272.812 2216.98 302.241 2216.43 331.668C2198.81 332.424 2174.44 331.746 2156.36 331.729C2153.81 328.534 2155.48 185.656 2155.28 169.393C2155.05 151.202 2154.44 115.539 2154.11 96.5568C2171.26 95.3114 2195.34 95.9398 2212.84 96.3179C2212.53 105.024 2212.7 113.647 2212.81 122.352C2231.61 102.722 2238.12 96.4122 2264.9 90.4883Z"/><path fill="#005AFF" d="M84.2419 273.37C122.876 268.293 158.357 295.374 163.651 333.979C168.944 372.585 142.062 408.217 103.487 413.727C64.6052 419.28 28.6276 392.138 23.292 353.225C17.9563 314.313 45.2999 278.488 84.2419 273.37ZM97.4935 389.59C122.657 387.503 141.499 365.623 139.828 340.428C138.158 315.234 116.592 296.033 91.3733 297.287C74.6848 298.117 59.7409 307.881 52.2796 322.832C44.8182 337.783 45.9993 355.595 55.3692 369.43C64.7392 383.264 80.8416 390.971 97.4935 389.59Z"/><path fill="#005AFF" d="M150.678 238.391C160.686 238.402 173.413 241.553 182.377 246.047C199.314 254.463 212.156 269.335 218.014 287.318C228.452 318.944 214.352 354.761 185.599 371.699C180.395 374.764 173.873 376.799 168.145 378.689C171.186 369.882 173.484 363.461 175.323 354.243C176.619 344.098 188.476 338.318 192.85 328.119C202.548 305.511 193.561 279.497 170.975 268.787C154.785 261.11 143.316 263.429 127.343 268.932C117.033 264.519 110.105 263.441 99.2637 261.349C114.492 244.755 129.193 240.688 150.678 238.391Z"/><path fill="#005AFF" d="M487.25 197.136C493.355 196.439 501.435 195.665 507.014 198.603C508.879 199.585 510.958 201.419 511.577 203.441C514.122 211.749 514.933 325.583 512.489 329.767C511.624 331.247 510.542 331.242 509.004 331.648C499.966 331.732 490.926 331.654 481.891 331.414C480.419 301.935 480.761 271.98 481.445 242.466C481.73 230.188 481.045 216.489 482.402 204.314C482.81 200.655 484.365 199.12 487.25 197.136Z"/><path fill="#005AFF" d="M425.343 235.507C428.342 235.421 431.344 235.389 434.345 235.411C437.007 235.455 441.714 235.6 443.656 237.705C449.895 244.469 446.935 317.2 446.676 331.506L432.5 331.717C425.717 331.807 418.932 331.702 412.155 331.401C411.382 318.698 409.479 246.037 414.273 239.892C416.931 236.484 421.346 235.928 425.343 235.507Z"/><path fill="#005AFF" d="M551.499 254.245C558.152 253.515 574.278 251.574 576.099 260.159C580.761 282.135 578.126 307.304 577.544 329.67C577.511 330.93 574.981 331.391 574.038 331.691C564.881 331.672 555.724 331.579 546.568 331.414C545.604 314.841 546.491 297.178 546.005 280.491C545.737 271.281 545.669 261.821 551.499 254.245Z"/><path fill="#005AFF" d="M355.187 267.325C361.283 267.065 377.305 265.566 379.341 271.487C382.369 280.295 383.461 323.135 380.962 329.862C378.054 331.762 378.102 331.197 374.25 331.419L347.249 331.399C346.998 318.287 346.156 305.053 346.119 291.955C346.092 282.345 344.612 270.962 355.187 267.325Z"/><path fill="#005AFF" d="M290.35 304.373C294.713 304.161 302.949 303.308 306.86 304.769C319.729 309.576 320.232 318.763 316.104 329.871C313.137 332.179 313.6 331.493 309.25 331.625C300.006 331.64 290.762 331.573 281.519 331.424C280.684 319.755 277.496 309.076 290.35 304.373Z"/><path fill="white" fill-opacity="0.011764706" d="M1270.99 301.863C1276.35 308.019 1279.86 312.032 1285.95 317.391L1276.89 317.611C1273.96 326.087 1273.97 337.63 1273.88 346.528C1273.78 358.15 1277.94 438.239 1270.08 441.958C1270.01 441.991 1269.94 442.019 1269.87 442.049C1268.56 425.48 1270.2 404.121 1270.08 387.105C1269.88 358.971 1269.08 329.885 1270.99 301.863Z"/></svg>