<svg width="2041" height="386" viewBox="0 0 2041 386" fill="none" xmlns="http://www.w3.org/2000/svg">
<path d="M1107.28 70.3752C1146.74 70.5918 1186.19 69.9245 1225.66 70.5531C1267.57 71.2204 1299.92 104.424 1297.31 146.679C1296.1 166.037 1286.8 176.672 1273.06 188.711C1303.97 215.459 1302.63 240.944 1286.56 275.285C1284.52 278.797 1279.59 284.715 1276.67 287.637C1267.84 296.438 1256.79 302.693 1244.7 305.743C1227.85 310.128 1201.66 308.778 1183.5 308.777L1107.1 308.676L1107.28 70.3752ZM1154.9 213.18L1154.83 261.224C1179.56 261.605 1206.25 263.287 1230.46 259.225C1236.67 257.485 1241.62 256.421 1244.92 250.596C1260.94 222.22 1234.58 213.485 1211.03 212.761C1197.57 212.348 1184.65 211.853 1171.25 212.765L1154.9 213.18ZM1154.68 165.465C1178.34 166.242 1219.71 169.144 1240.52 160.901C1248.19 153.878 1255.15 137.798 1246.39 129.225C1235.52 118.589 1213.82 117.854 1199.38 117.233C1187.29 117.199 1171.12 117.198 1159.15 118.178L1155.52 118.655C1153.7 121.328 1154.63 159.92 1154.68 165.465Z" fill="#151515"/>
<path d="M145.961 136.603L306.681 136.562C330.285 136.536 353.899 136.402 377.497 136.515C385.317 136.553 394.824 136.952 399.817 143.919C405.401 151.711 402.567 158.498 396.019 164.459C384.191 175.223 371.129 184.585 358.369 194.239C337.473 210.309 316.311 226.031 294.89 241.397C308.661 281.152 319.946 323.018 331.688 363.485C333.101 368.358 333.538 374.736 330.452 379.022C325.205 386.309 317.228 387.074 309.73 382.672C297.207 375.995 285.854 367.437 274.307 359.275L219.869 320.566C214.062 316.619 208.219 312.724 202.342 308.881C184.879 321.961 166.193 333.97 148.376 346.602C130.398 359.348 112.622 372.873 93.3621 383.518C82.299 389.634 70.005 380.2 72.2138 368.331C82.0539 334.788 90.6474 298.294 103.569 265.971C135.753 264.903 167.964 264.913 200.149 265.998C216.995 253.868 233.558 238.308 250.328 225.792C252.105 224.466 253.494 221.412 254.035 219.311C253.818 218.31 253.763 217.003 253.083 216.231C243.236 205.049 159.73 213.438 140.04 211.936C135.02 211.552 127.862 211.098 124.408 207.049C122.016 196.797 140.611 147.968 145.961 136.603Z" fill="#FB3661"/>
<path d="M725.67 71.1482C754.599 68.7708 782.47 78.0043 803.115 98.5937C814.631 109.984 822.936 124.21 827.193 139.835C832.391 159.073 831.152 197.92 831.129 219.214L830.997 308.458C814.813 308.678 798.626 308.699 782.44 308.519L782.425 260.904C770.75 260.706 758.648 260.845 746.938 260.825L687.533 260.947L687.561 308.452C672.484 309.078 654.984 308.754 639.832 308.589L639.728 217.837C639.627 197.277 638.322 163.008 642.415 144.184C645.449 130.498 651.493 117.658 660.108 106.598C676.746 85.1774 699.146 74.5517 725.67 71.1482ZM687.446 213.695C707.193 213.522 726.941 213.467 746.689 213.531L782.333 213.411C783.936 165.857 789.377 116.405 725.086 118.705C721.686 120.056 718.172 121.467 714.852 122.991C681.041 138.506 685.628 182.311 687.446 213.695Z" fill="#151515"/>
<path d="M1417.07 71.1608C1419.85 70.6838 1423.89 70.597 1426.8 70.5845C1451.94 70.5478 1476.1 80.4215 1494.02 98.0644C1505.78 109.724 1514.2 124.315 1518.42 140.326C1523.44 159.72 1521.79 194.383 1521.78 215.718L1521.75 308.649C1505.82 308.79 1489.9 308.781 1473.98 308.618L1474 260.879L1436.58 260.899L1378.21 260.915L1378.13 308.51C1363.42 309.181 1345.8 308.731 1330.89 308.708C1330.24 284.587 1330.83 257.487 1330.61 233.075C1330.39 208.903 1328.92 167.33 1333.6 145.186C1336.47 131.541 1342.29 118.689 1350.66 107.534C1367.91 84.4609 1389.28 75.1228 1417.07 71.1608ZM1378.18 213.432L1431.59 213.545C1445.55 213.533 1460.07 213.311 1473.99 213.542C1474.88 173.261 1480.25 118.07 1423.91 117.847C1423.21 117.842 1422.52 117.857 1421.82 117.89C1371.81 127.083 1376.46 174.574 1378.18 213.432Z" fill="#151515"/>
<path d="M872.28 69.8848C889.245 70.6473 906.192 70.4266 923.167 70.2331C953.175 122.604 983.669 174.695 1014.64 226.501L1014.64 69.9716C1030.58 70.4517 1046.54 70.5333 1062.48 70.2142L1062.33 308.752L1011.59 308.6C1001.48 290.346 990.089 272.048 979.476 253.985L919.826 152.617L919.823 308.638C903.892 308.875 887.958 308.859 872.028 308.59L872.28 69.8848Z" fill="#151515"/>
<path d="M1621.99 70.1923C1626.12 69.6683 1630.58 69.8032 1634.76 69.7949C1666.56 69.7384 1698.34 71.0019 1730.14 70.0333L1730.05 118.405C1711.56 117.8 1692.72 118.318 1673.92 118.111C1653.73 118.446 1632.85 115.257 1613.13 120.325C1602.09 121.754 1595.31 135.821 1597.34 146.391C1602.73 174.58 1658.92 163.967 1679.35 166.99C1691.62 168.741 1703.26 173.55 1713.17 180.974C1728.06 192.227 1737.19 209.243 1739.63 227.609C1742.03 246.573 1736.9 265.72 1725.36 280.961C1711.62 298.757 1693.14 305.833 1671.51 308.617C1638.54 310.018 1596.34 308.741 1562.66 308.707L1562.69 261.152C1585.48 260.582 1608.55 261.029 1631.42 260.978C1652.23 261.462 1696.65 267.244 1691.98 233.256C1687.91 203.624 1629.19 214.953 1607.8 211.543C1595.84 209.623 1584.56 204.706 1575.03 197.251C1539.7 169.446 1541 117.377 1573.81 88.3781C1587.68 76.1197 1604.03 71.8962 1621.99 70.1923Z" fill="#151515"/>
<path d="M456.405 70.2007C510.439 71.3617 568.624 70.6536 622.861 70.2185L622.829 117.721C583.676 118.534 543.396 118.001 504.077 118.398L504.037 165.621C526.714 166.456 551.897 165.581 575.102 166.018L575.077 187.094L575.079 213.206C551.977 213.667 527.318 213.249 504.1 213.246L504.152 308.605C488.834 309.083 471.847 308.714 456.404 308.693L456.405 70.2007Z" fill="#151515"/>
<path d="M1771.05 69.9234L1819.1 69.9182L1819.06 308.895L1770.96 308.843C1770.05 229.871 1771 149.048 1771.05 69.9234Z" fill="#FB3661"/>
<path d="M197.191 0.0546354C200.927 -0.0175344 204.793 -0.247657 208.275 1.33276C220.425 6.84695 237.689 68.3116 242.356 82.095L206.791 82.0898L162.654 82.2739C169.977 63.3068 182.944 10.2128 197.191 0.0546354Z" fill="#FB3661"/>
<path d="M1862.68 261.158C1881.17 260.59 1899.96 261.35 1918.45 260.921C1934.5 260.55 1950.99 262.442 1966.8 260.842C1981.36 259.369 1992.62 251.348 1992.19 235.436C1991.42 206.96 1947.25 213.733 1928.28 213.013C1884.91 213.993 1849.3 187.94 1849.4 142.025C1849.37 122.604 1857.16 103.991 1871.04 90.3925C1896.31 65.5755 1934.93 69.6044 1967.59 69.8701L2029.9 70.3366C2029.61 86.1387 2029.44 101.943 2029.39 117.748L1972.81 117.703C1954.6 117.531 1933.64 115.621 1915.87 119.708C1907.48 121.639 1902.51 124.622 1898.49 132.245C1895.4 138.074 1896.87 143.788 1898.52 149.899C1906.24 173.306 1954.34 164.258 1973.11 166.196C1984.23 167.345 1992.98 169.026 2003.11 174.366C2027.85 187.41 2033.2 204.489 2041 228.565V245.596C2036.24 262.109 2031.61 275.554 2019.05 287.962C2010.69 296.195 2000.37 302.14 1989.05 305.226C1971.34 310.088 1946.58 308.686 1927.81 308.713C1906.1 308.8 1884.39 308.769 1862.69 308.617L1862.68 261.158Z" fill="#151515"/>
<path d="M0 146.366C5.80899 138.794 10.2743 136.279 20.3589 135.419C43.2418 133.466 67.1668 134.559 90.1917 133.621L65.9432 208.234C49.9381 197.35 12.6899 169.846 0 156.086V146.366Z" fill="#FB3661"/>
</svg>
