<svg width="1080" height="284" viewBox="0 0 1080 284" fill="none" xmlns="http://www.w3.org/2000/svg">
<mask id="mask0_217_7107" style="mask-type:luminance" maskUnits="userSpaceOnUse" x="0" y="35" width="1080" height="211">
<path d="M1079.82 35.5H0V245.366H1079.82V35.5Z" fill="white"/>
</mask>
<g mask="url(#mask0_217_7107)">
<path d="M987.364 239.874C972.058 239.02 958.85 235.608 947.705 229.638C936.752 223.5 928.378 215.367 922.583 205.24C916.796 194.935 914.27 183.117 914.995 169.79C915.878 153.795 920.249 139.78 928.142 127.743C936.044 115.529 946.7 106.142 960.109 99.5828C976.306 93.6118 988.841 90.2248 1006.08 91.1878C1020.67 92.0028 1033.01 95.3658 1043.1 101.277C1053.35 107.198 1061.03 115.114 1066.13 125.024C1071.42 134.767 1073.72 145.946 1073.03 158.565C1072.8 162.829 1072.31 166.902 1071.56 170.783C1071.43 171.504 1071.29 172.222 1071.14 172.937C1069.99 178.441 1065.01 182.126 1059.45 182.126H986.123C981.874 182.126 978.841 177.947 980.135 173.849L985.388 157.09C985.515 156.68 985.767 156.321 986.109 156.062C986.451 155.803 986.865 155.657 987.294 155.646L1029.24 154.614C1032.08 154.543 1032.73 158.605 1030.01 159.444C1028.18 160.01 1026.43 158.318 1026.73 156.407C1027.55 151.412 1027.28 147.066 1025.97 143.368C1024.47 138.472 1021.6 134.657 1017.34 131.924C1013.26 129.022 1008.06 127.395 1001.73 127.041C993.649 126.59 986.848 128.26 981.35 132.052C976.026 135.854 971.857 141.236 968.832 148.198C965.983 154.992 964.339 162.474 963.894 170.649C963.352 180.601 965.668 188.128 970.86 193.232C976.053 198.157 984.112 200.923 995.012 201.532C1001.28 201.892 1007.57 201.25 1013.64 199.632C1015.14 199.203 1016.59 198.726 1018.01 198.2C1024.98 195.62 1033.45 197.312 1037.2 203.771L1043.28 214.236C1046.66 220.059 1044.99 227.642 1038.97 230.588C1032.7 233.662 1026.07 235.943 1019.24 237.379C1008.77 239.638 998.053 240.477 987.364 239.874Z" fill="#E7E7E8"/>
<path d="M477.816 99.8942C491.665 99.8942 499.302 102.853 509.179 109.382C519.806 116.408 523.982 123.347 527.998 134.682C532.211 145.814 531.572 158.593 528.172 173.265C523.459 193.604 513.908 222.728 509.106 236.932C508.277 239.394 506.695 241.534 504.584 243.048C502.473 244.562 499.939 245.374 497.341 245.37H472.966C464.323 245.37 458.257 236.775 461.072 228.536C467.661 209.245 477.704 179.389 479.17 172.404C481.377 161.88 482.882 155.614 477.063 148.117C472.001 141.594 456.387 138.735 444.996 146.7C436.103 152.92 430.881 169.127 430.773 169.464L430.766 169.485L409.241 236.612C407.567 241.832 402.746 245.37 397.304 245.37H366.516C357.987 245.37 351.944 236.972 354.59 228.795L391.465 114.844C393.149 109.64 397.963 106.118 403.392 106.118H433.945C441.606 106.118 447.476 112.98 446.356 120.621L445.424 126.965C446.705 118.237 449.588 106.22 455.861 103.057C457.693 102.134 465.772 99.8942 477.816 99.8942ZM43.727 242.98C37.643 242.98 32.4389 238.562 31.3869 232.503L0.196951 52.7632C-1.50705 42.9432 8.15395 35.0732 17.2789 38.8492L58.929 56.0782C62.829 57.6912 65.665 61.1792 66.478 65.3612L94.927 211.815C96.893 221.934 86.717 230.061 77.437 225.784L65.173 220.13C58.491 217.05 55.8509 208.845 59.4599 202.376L129.004 77.7722C131.226 73.7922 135.394 71.3302 139.914 71.3302H178.087C183.577 71.3302 188.428 74.9452 190.054 80.2482L226.135 197.984C228.632 206.136 222.608 214.402 214.168 214.402H212.679C204.118 214.402 198.079 205.913 200.802 197.705L228.301 114.806C230.013 109.645 234.794 106.167 240.178 106.167H270.632C279.177 106.167 285.215 114.627 282.522 122.827L245.916 234.304C244.215 239.485 239.425 242.98 234.028 242.98H189.228C183.425 242.98 178.381 238.95 177.04 233.241L146.625 103.748C145.017 96.9022 150.151 90.3322 157.11 90.3322C165.18 90.3322 170.387 98.9722 166.688 106.224L100.445 236.119C98.297 240.333 94 242.98 89.312 242.98H43.727Z" fill="#D5AB5D"/>
<path d="M245.936 234.468L253.884 209.908L227.009 118.005L226.949 118.128L213.831 158.247L213.781 158.397L216.518 168.069L234.791 232.629C236.3 237.966 243.101 238.808 245.936 234.468Z" fill="url(#paint0_linear_217_7107)"/>
<path fill-rule="evenodd" clip-rule="evenodd" d="M118.642 200.543L100.178 236.47C99.8582 237.08 99.4897 237.663 99.0761 238.213L94.6261 215.422L84.4341 157.602L92.0951 144.021L100.538 128.835L118.642 200.543Z" fill="url(#paint1_linear_217_7107)"/>
<path d="M567.921 113.945L536.145 229.086C533.891 237.25 539.835 245.368 548.061 245.368H578.798C584.335 245.368 589.199 241.579 590.715 236.086L622.493 120.945C624.745 112.782 618.802 104.663 610.576 104.663H579.839C574.303 104.663 569.438 108.452 567.921 113.945Z" fill="#E7E7E8"/>
<path d="M302.141 113.945L269.505 229.086C267.191 237.25 273.295 245.368 281.745 245.368H313.312C318.998 245.368 323.994 241.579 325.551 236.086L358.187 120.945C360.502 112.782 354.398 104.663 345.948 104.663H314.382C308.695 104.663 303.699 108.452 302.141 113.945Z" fill="#D5AB5D"/>
<path d="M586.072 47.389L581.116 64.917C578.181 75.296 586.059 85.583 596.941 85.583H620.453C627.823 85.583 634.289 80.723 636.277 73.695L641.232 56.167C644.167 45.787 636.29 35.501 625.408 35.501H601.896C594.526 35.501 588.059 40.36 586.072 47.389Z" fill="#E7E7E8"/>
<path d="M319.418 47.389L314.464 64.917C311.528 75.296 319.406 85.583 330.287 85.583H353.799C361.169 85.583 367.637 80.723 369.624 73.695L374.58 56.167C377.513 45.787 369.637 35.501 358.755 35.501H335.243C327.874 35.501 321.406 40.36 319.418 47.389Z" fill="#D5AB5D"/>
<path d="M727.773 245.368C717.038 245.368 707.507 243.553 699.179 239.918C690.851 236.102 684.373 230.197 679.745 222.203C675.119 214.025 672.805 203.486 672.805 190.586C672.805 177.504 674.379 165.147 677.525 153.519C680.671 141.709 685.298 131.26 691.406 122.175C697.698 113.09 705.379 105.913 714.448 100.643C723.516 95.3728 733.974 92.7388 745.82 92.7388C756.738 92.7388 767.01 95.3738 776.634 100.643C786.443 105.913 794.308 113.544 800.23 123.538C806.341 133.35 809.397 145.433 809.397 159.788C809.397 172.143 807.268 183.499 803.009 193.857C798.749 204.214 792.828 213.298 785.241 221.112C777.838 228.743 769.232 234.739 759.422 239.1C749.612 243.279 739.064 245.368 727.773 245.368ZM720.278 203.669C727.31 203.669 733.511 201.942 738.878 198.49C744.246 195.038 748.41 190.222 751.371 184.045C754.518 177.866 756.091 170.69 756.091 162.512C756.091 153.973 753.591 147.158 748.596 142.071C743.598 136.802 736.564 134.167 727.496 134.167C720.648 134.167 714.448 135.984 708.896 139.619C703.528 143.07 699.272 147.886 696.125 154.064C693.164 160.242 691.684 167.42 691.684 175.596C691.684 184.136 694.182 190.949 699.179 196.037C704.176 201.125 711.209 203.669 720.278 203.669Z" fill="#E7E7E8"/>
<path d="M673.45 51.8202L623.472 226.802C621.157 234.903 627.178 242.987 635.527 242.987H666.627C672.217 242.987 677.134 239.252 678.683 233.827L728.662 58.8452C730.976 50.7432 724.956 42.6602 716.605 42.6602H685.507C679.917 42.6602 675.001 46.3952 673.45 51.8202ZM863.982 52.1802L819.237 227.162C817.187 235.18 823.212 242.987 831.453 242.987H862.937C868.692 242.987 873.719 239.07 875.151 233.466L919.897 58.4852C921.943 50.4672 915.92 42.6602 907.677 42.6602H876.2C870.442 42.6602 865.415 46.5772 863.982 52.1802Z" fill="#E7E7E8"/>
</g>
<defs>
<linearGradient id="paint0_linear_217_7107" x1="216.083" y1="184.616" x2="242.045" y2="174.525" gradientUnits="userSpaceOnUse">
<stop stop-color="#AB843C"/>
<stop offset="1" stop-color="#D5AB5D"/>
</linearGradient>
<linearGradient id="paint1_linear_217_7107" x1="86.4451" y1="188.741" x2="112.129" y2="178.965" gradientUnits="userSpaceOnUse">
<stop stop-color="#AB843C"/>
<stop offset="1" stop-color="#D5AB5D"/>
</linearGradient>
</defs>
</svg>
